<svg xmlns="http://www.w3.org/2000/svg" width="793.701" height="1122.52" viewBox="0 0 744.094 1052.362" xmlns:v="https://vecta.io/nano"><defs><linearGradient id="A" x1="417.193" y1="537.589" x2="404.465" y2="910.941" gradientUnits="userSpaceOnUse"><stop offset="0" stop-color="#fff"/></linearGradient></defs><path d="M520.339 933.803c-10.136-1.535-20.164-5.54-28.4-11.343-3.747-2.639-9.903-8.452-12.945-12.221-5.016-6.216-9.869-14.914-11.856-21.247l-1.147-3.656-4.218.212c-4.487.225-16.99-.22-23.374-.832-5.525-.53-13.465-1.544-25.856-3.302-18.112-2.57-20.337-2.771-30.567-2.764-15.792.012-27.214 1.414-56.532 6.938-13.645 2.571-18.853 3.328-24.624 3.581l-4.826.211-1.243 2.48c-7.76 15.487-23.246 26.902-42.015 30.971-9.116 1.976-21.692 2.607-31.456 1.577-19.248-2.029-36.807-7.388-57.105-17.427-12.99-6.425-20.767-9.273-32.5-11.901-10.582-2.371-18.723-3.607-39.475-5.994-25.658-2.951-35.584-5.005-44.834-9.279-6.426-2.969-12.542-8.198-15.521-13.269-3.393-5.776-4.62-10.972-4.616-19.534.005-9.087 1.696-17.716 5.93-30.257 2.464-7.299 2.762-9.305 2.509-16.904-.157-4.701-.61-8.898-1.964-18.166-2.681-18.357-2.992-24.643-1.586-32.056 2.334-12.303 10.283-22.912 22.057-29.438 3.944-2.186 7.447-3.675 14.444-6.141 16.011-5.641 20.763-8.048 25.566-12.95 2.935-2.995 4.08-4.429 11.113-13.911 7.05-9.504 9.119-12.065 13.028-16.123l3.08-3.198-.568-4.662c-.783-6.423-1.066-21.112-.545-28.264 1.905-26.149 9.342-53.652 22.59-83.541 17.326-39.088 44.488-81.641 78.891-123.594 8.44-10.292 15.276-20.817 21.895-33.711 11.95-23.278 17.686-45.087 20.257-77.029.496-6.159.292-12.706-1.081-34.759-1.516-24.335-1.746-30.258-1.755-45.159-.009-13.635.281-20.64 1.253-30.298 5.398-53.638 27.883-87.693 68.453-103.674 18.33-7.221 41.497-10.852 65.501-10.267 21.665.528 38.229 4.218 54.322 12.102 9.724 4.763 17.597 10.399 25.356 18.149 23.17 23.144 36.199 59.203 39.958 110.59 1.028 14.05 1.239 23.249 1.236 53.798-.003 36.679.129 38.67 3.497 52.418 4.665 19.043 13.744 37.077 29.978 59.545 6.075 8.407 17.087 22.519 25.218 32.314 37.547 45.235 62.517 87.123 75.937 127.39 13.522 40.574 15.01 79.615 4.364 114.526l-1.583 5.24c-.103.372.559.807 2.279 1.499 3.546 1.426 9.472 5.49 12.764 8.754 6.567 6.51 10.608 14.871 14.132 29.239l3.332 13.607c3.023 12.364 5.609 19.107 8.995 23.458.836 1.074 3.071 3.741 4.967 5.928 25.617 29.542 27.947 51.141 7.306 67.746-6.487 5.219-12.271 8.489-34.858 19.71l-21.31 10.86c-16.609 9.334-26.661 17.31-37.401 29.675-20.957 24.129-44.473 38.819-69.992 43.724-4.11.79-5.842.927-12.954 1.021-5.842.078-9.159-.035-11.503-.39zm15.869-10.656c14.064-1.322 28.451-6.805 42.619-16.241 10.504-6.996 18.547-14.372 30.309-27.796 9.527-10.874 20.565-19.543 36.415-28.602 5.191-2.967 9.714-5.255 34.41-17.407 16.714-8.225 24.249-13.482 28.355-19.784 4.817-7.393 3.424-16.845-4.325-29.352-3.355-5.415-7.684-11.027-15.612-20.237-5.201-6.042-8.512-13.74-11.738-27.29-5.148-21.625-6.177-25.118-9.179-31.162-3.265-6.575-7.97-11.234-14.574-14.429-6-2.903-7.853-3.229-19.337-3.405l-9.905-.152-3.544 3.512c-11.398 11.294-27.728 20.371-42.321 23.525-5.136 1.11-13.567 1.113-17.403.006-6.156-1.777-10.083-4.036-14.67-8.439-8.301-7.969-14.028-20.656-15.859-35.128-.316-2.5-.618-4.603-.67-4.673-.247-.331-4.963 2.676-7.548 4.813-6.156 5.089-10.846 12.559-14.198 22.615-4.519 13.554-6.917 30.651-8.592 61.257-1.212 22.145-1.918 25.588-12.927 63.055-7.371 25.086-10.009 38.744-10.053 52.051-.035 10.52 1.315 16.439 5.444 23.877 6.329 11.399 14.892 19.874 24.747 24.492 9.151 4.288 19.214 5.921 30.157 4.892zm-294.391-9.788c11.097-1.205 21.306-4.669 29.063-9.863 3.366-2.253 8.829-7.716 11.08-11.079 3.517-5.254 5.939-11.226 7.437-18.34.952-4.521 1.312-12.774.719-16.455-1.56-9.672-7.911-22.833-17.936-37.168-4.232-6.052-9.438-12.825-20.674-26.899-16.538-20.714-21.948-28.244-26.735-37.204l-17.739-32.488c-17.467-31.905-17.879-32.561-25.227-40.131-6.059-6.242-11.174-10.126-16.611-12.612-7.513-3.436-16.299-4.501-22.953-2.78-7.957 2.058-14.896 8.002-24.65 21.113-10.524 14.147-12.633 16.756-16.563 20.48-5.919 5.61-11.463 8.531-25.435 13.399-15.32 5.338-19.813 7.741-24.905 13.32-3.768 4.128-6.339 9.015-7.35 13.974-1.556 7.625-1.173 13.117 2.615 37.515.446 2.871.775 7.176.896 11.703.239 8.992-.111 11.194-3.362 21.135-3.969 12.134-5.475 20.261-5.149 27.772.303 6.98 1.789 11.164 5.317 14.975 6.853 7.402 17.727 10.677 45.401 13.674 30.037 3.253 41.897 5.298 56.069 9.668 7.725 2.382 11.501 3.94 22.707 9.371 5.668 2.747 12.553 5.881 15.3 6.964 13.1 5.166 25.912 8.473 37.894 9.78 5.28.576 16.25.669 20.792.176zm136.496-64.975c31.761-2.088 63.026-13.227 92.809-33.065 2.44-1.625 4.578-3.139 4.751-3.364.413-.537 5.979-20.168 7.742-27.308 2.878-11.652 3.231-14.43 4.39-34.584 2.375-41.288 6.976-61.845 17.321-77.392 2.732-4.105 9.237-10.726 13.02-13.251 2.581-1.723 10.098-5.589 10.88-5.596.195-.003.638-1.835.983-4.074 1.088-7.054 3.045-12.071 6.349-16.276 7.877-10.025 23.301-11.7 44.19-4.799 11.418 3.772 26.989 11.486 35.728 17.699 3.697 2.628 9.881 8.807 11.39 11.379 2.863 4.882 3.793 10.171 2.708 15.405l-.569 2.895c0 .082 1.533.105 3.406.05l3.406-.1.575-2.271c3.64-14.373-3.227-26.85-21.532-39.122-6.708-4.497-20.253-11.882-26.635-14.523-1.3-.538-2.494-1.088-2.654-1.223s.035-1.746.433-3.58c8.921-41.177-7.262-92.185-42.804-134.911-4.248-5.107-15.603-16.817-16.621-17.139-.367-.117-1.063.051-1.557.375-1.861 1.219-.423 3.726 5.812 10.127 7.98 8.194 12.301 13.593 18.595 23.231 22.245 34.067 30.852 71.294 23.813 103.002-.846 3.81-3.324 12.004-3.893 12.874-.209.319-1.322.206-4.631-.469a70.56 70.56 0 0 0-8.886-1.118l-4.529-.23-.47-2.445c-6.195-32.231-18.213-65.335-36.193-99.695-12.722-24.313-20.573-41.494-33.222-72.703-11.506-28.39-24.026-65.238-29.525-86.898-.207-.817-.489-1.481-.625-1.477s-.675.611-1.197 1.349c-1.597 2.259-5.786 6.559-8.574 8.802-7.447 5.991-15.167 10.142-25.586 13.758-4.689 1.627-8.623 3.619-14.606 7.396-13.414 8.467-19.959 11.983-26.482 14.227-8.553 2.943-17.887 4.159-26.274 3.425-8.095-.709-13.607-2.233-19.973-5.522-5.014-2.591-8.702-5.311-16.172-11.925-8.143-7.21-10.171-8.81-14.846-11.705-2.105-1.304-5.058-3.227-6.562-4.274-3.065-2.133-3.278-2.088-3.29.705-.009 2.315-1.234 12.564-2.129 17.816-2.582 15.148-6.105 28.74-12.178 46.986-8.038 24.148-17.26 46.422-35.653 86.112-14.309 30.877-17.124 37.409-21.368 49.577-8.864 25.416-14.512 53.467-15.532 77.146-.13 3.026-.34 5.502-.466 5.502s-1.348-1.69-2.716-3.755c-17.572-26.54-19.781-59.938-6.559-99.14 3.335-9.889 6.368-16.958 12.357-28.805l9.803-19.388c4.901-9.69 7.365-15.52 7.365-17.428 0-2.541-.966-1.563-4.969 5.026-17.975 29.592-29.152 52.468-36.44 74.584-10.041 30.472-11.089 56.767-3.119 78.302 4.226 11.419 10.206 20.63 19.375 29.844 5.919 5.948 10.387 9.57 17.564 14.239l13.218 8.679c36.777 24.296 60.519 51.08 64.973 73.298.614 3.061.531 9-.163 11.703-1.558 6.067-5.275 10.559-11.093 13.405-4.223 2.065-7.903 3.003-12.796 3.261-2.162.114-3.929.301-3.927.417s1.435 2.018 3.184 4.227c5.598 7.07 13.368 17.563 16.926 22.859l3.454 5.141 4.024 2.533c8.224 5.177 16.509 9.421 24.46 12.531 14.945 5.844 27.662 8.612 45.065 9.806 3.851.264 11.824.2 16.949-.137zm-16.6-458.124c10.693-1.443 18.235-4.554 31.615-13.039 11.28-7.153 15.786-9.573 20.96-11.255 23.566-7.662 40.054-24.855 38.224-39.858-.742-6.087-4.838-11.729-11.682-16.093-3.493-2.227-11.796-5.701-23.223-9.715-11.819-4.152-14.98-5.562-22.108-9.864-15.327-9.249-26.838-13.296-39.201-13.784-8.002-.315-14.653.871-21.911 3.91-7.111 2.977-13.608 7.499-21.976 15.294-3.867 3.602-8.251 7.146-15.022 12.142-13.488 9.952-15.201 11.335-16.91 13.657-6.959 9.453-2.606 22.569 11.156 33.613 3.199 2.567 5.278 3.985 11.389 7.767 4.027 2.492 8.46 6.003 14.494 11.481 10.223 9.28 15.664 12.58 24.267 14.717 6.123 1.521 13.465 1.9 19.928 1.027zm-18.515-24.305c-7.945-.97-14.922-3.05-22.183-6.614-7.711-3.785-14.399-8.374-22.073-15.146-7.749-6.838-10.784-10.007-11.417-11.916-1.116-3.369-.412-6.088 1.456-5.619 1.619.406 2.691 1.476 4.091 4.08 1.507 2.804 4.213 5.645 10.814 11.354 12.028 10.402 22.04 15.843 34.421 18.705 2.846.658 4.364.769 10.655.777 6.666.009 7.735-.076 11.703-.929 8.198-1.762 17.729-5.281 27.423-10.127 10.991-5.493 15.605-8.373 27.248-17.008 7.412-5.497 8-6.021 10.685-9.526 2.214-2.889 3.587-3.694 5.563-3.26 4.392.965-.967 7.696-13.803 17.34-7.887 5.925-12.786 8.871-24.592 14.785-12.209 6.116-17.764 8.412-25.887 10.699-7.77 2.187-17.736 3.181-24.104 2.404zm-12.667-68.342c-2.304-.955-2.148-3.171.338-4.8.728-.477 2.582-1.287 4.119-1.8 2.264-.756 3.217-.899 5.02-.756 2.297.183 3.959 1.02 4.172 2.101.182.927-1.166 1.909-3.201 2.332-1.205.25-2.821.985-4.294 1.953-2.611 1.715-3.878 1.915-6.153.971zm40.814-.858c-1.155-.827-2.85-1.655-3.987-1.948-2.611-.672-3.55-1.308-3.55-2.403 0-.699.308-1.022 1.485-1.556 2.69-1.221 6.816-.658 10.823 1.478 3.412 1.818 3.924 4.203 1.152 5.361-2.165.904-3.694.664-5.923-.933zm-71.729 1.688c2.257-1.71 4.189-3.246 4.293-3.414s-.459-.892-1.251-1.607c-5.438-4.913-8.795-15.452-8.259-25.93 1.077-21.081 15.856-26.939 24.072-9.543 2.308 4.887 3.121 8.725 3.327 15.705.098 3.314.234 6.026.303 6.026s.874-.46 1.79-1.023c2.654-1.631 7.317-3.768 11.097-5.085l3.493-1.217-.021-6.905c-.024-7.667-.572-12.057-2.252-18.033-4.139-14.723-12.742-25.661-22.848-29.048-3.126-1.048-8.056-1.287-11.21-.545-4.812 1.133-10.268 5.068-14.154 10.208-4.008 5.302-7.409 13.716-8.942 22.129-.966 5.298-.88 17.691.162 23.388 2.038 11.143 6.449 21.029 12.282 27.53l1.804 2.011 1.105-.769c.608-.423 2.952-2.167 5.209-3.877zm141.763 1.06c7.951-11.291 11.787-25.678 10.798-40.493-.652-9.77-2.376-16.263-6.629-24.976-4.865-9.966-11.633-17.061-20.431-21.421-5.28-2.616-8.318-3.299-14.672-3.299-7.637 0-12.593 1.442-18.722 5.447-4.074 2.662-10.278 8.79-12.847 12.691-4.235 6.429-7.771 15.322-9.175 23.081-.608 3.361-.761 5.621-.791 11.679-.02 4.131.084 8.076.231 8.766.254 1.19.372 1.279 2.271 1.697 3.543.78 11.674 3.417 15.569 5.05l3.785 1.586-.261-1.475c-.443-2.501-.256-10.391.325-13.702.713-4.062 1.656-6.937 3.553-10.829 2.658-5.454 6.528-9.361 10.913-11.013 2.872-1.083 7.194-.875 9.962.479 8.74 4.276 14.145 18.236 12.507 32.299-.916 7.862-2.581 12.003-6.454 16.058l-2.663 2.787.965.363 6.326 2.339c2.948 1.087 7.114 2.735 9.257 3.663l4.149 1.723c.139.02 1.055-1.104 2.036-2.497z"/><g stroke="#000"><g stroke-width="14.425"><path d="M348.213 845.626c-35.036-6.204-56.383-18.186-72.339-40.602-8.505-11.949-8.845-13.162-3.693-13.162 3.121 0 9.204-3.036 13.518-6.746 22.008-18.931-3.258-60.047-60.864-99.047-40.257-27.254-53.346-50.364-50.466-89.102 1.402-18.862 12.108-58.962 14.976-56.094.581.581-.949 10.516-3.4 22.079-5.598 26.41-3.571 49.177 6.259 70.277 8.766 18.815 10.171 17.018 14.861-19.01 3.689-28.342 13.125-55.603 39.345-113.683 23.267-51.536 33.514-80.329 40.103-112.682l4.804-23.587 18.2 13.95c21.643 16.589 35.581 21.784 52.297 19.492 12.842-1.76 75.125-32.332 84.39-41.423 5.3-5.2 5.617-4.639 17.297 30.586 15.789 47.614 20.195 58.306 48.099 116.717 13.496 28.252 26.948 61.228 31.153 76.368l8.499 30.181c.606 1.949 5.557 3.536 11.033 3.536 8.425 0 10.265-1.182 12.11-7.778 4.383-15.673 2.005-55.043-4.387-72.632-7.773-21.389-5.514-24.248 3.293-4.17 10.152 23.144 14.329 43.983 13.895 69.326l-.393 22.929 13.73 6.431c24.798 11.615 40.941 32.076 35.169 44.578-1.813 3.926-2.499 3.081-3.3-4.063-1.865-16.628-30.735-36.672-62.694-43.526-12.289-2.636-15.871-2.333-24.957 2.106-6.99 3.415-11.573 8.097-13.437 13.724-1.556 4.697-9.396 14.879-17.424 22.627-17.758 17.14-22.138 30.22-26.501 79.141-3.36 37.679-9.986 66.014-16.711 71.461-8.877 7.191-50.054 25.622-63.815 28.565-21.658 4.631-43.854 5.856-58.652 3.235z" fill="#ffb046"/><path d="M511.144 919.06c-11.868-3.665-28.298-22.367-32.12-36.562-3.632-13.487-1.019-31.069 11.369-76.494 4.687-17.188 9.35-43.997 11.069-63.64 3.545-40.507 6.494-52.168 16.072-63.552 8.409-9.993 12.368-10.891 12.368-2.804 0 8.626 10.141 26.839 18.687 33.561 14.439 11.358 43.906 5.92 65.16-12.023 7.06-5.96 11.839-7.508 23.177-7.508 21.096 0 27.166 6.548 36.707 39.6 5.694 19.726 10.879 31.008 19.498 42.426 25.729 34.086 23.407 40.142-25.015 65.249-28.538 14.797-39.187 22.265-61.06 42.82-14.571 13.694-33.039 28.215-41.04 32.269-16.062 8.139-40.479 11.102-54.871 6.657zm-297.786-8.675c-8.423-1.455-27.515-7.877-42.426-14.272-25.822-11.074-33.656-12.9-97.043-22.624-25.222-3.869-33.306-10.235-33.306-26.228 0-6.64 1.913-18.321 4.251-25.958 3.569-11.657 3.731-18.269 1.007-41.21-4.313-36.33-1.147-42.438 28.382-54.755 22.607-9.43 25.774-11.92 47.844-37.615 13.739-15.996 15.976-17.483 26.303-17.483 23.386 0 31.916 8.399 59.802 58.883 11.408 20.653 30.639 50.254 42.734 65.778 25.525 32.763 38.579 56.034 38.579 68.774 0 4.957-2.864 14.692-6.364 21.633-10.848 21.512-36.668 30.793-69.762 25.077z" fill="#ffbc00"/></g><path d="M347.759 390.066c-8.97-1.179-21.399-8.013-32.75-18.006-3.163-2.784-8.932-7.172-12.82-9.75-13.473-8.933-18.352-13.669-22.336-21.684-1.995-4.014-2.094-4.426-2.094-8.75 0-5.233.919-7.811 3.995-11.217 1.022-1.131 7.066-5.966 13.431-10.744s14.161-11.001 17.323-13.827c10.271-9.181 16.347-13.236 24.037-16.042 6.198-2.262 10.294-2.957 17.43-2.957 13.564 0 22.78 2.981 40.783 13.194 8.412 4.772 11.487 6.108 29 12.601 17.736 6.576 23.336 10.397 27.103 18.49 1.833 3.938 1.894 9.892.15 14.465-1.4 3.671-4.552 8.625-7.7 12.103-5.799 6.408-17.325 13.535-28.278 17.484-5.424 1.956-11.662 5.17-19.137 9.859-5.086 3.19-17.476 8.919-27.138 12.546-6.969 2.616-13.123 3.272-21 2.237zm7.038-24.026c11.381-1.141 20.399-4.144 36.722-12.229 13.258-6.567 18.622-9.739 26.427-15.628 13.573-10.24 18.901-17.596 12.745-17.596-1.379 0-2.139.382-3.357 1.684l-3.924 4.202c-2.831 3.035-16.512 13.081-23.853 17.515-11.032 6.663-25.361 12.908-35.787 15.596-5.409 1.395-6.467 1.503-14.67 1.502-9.933-.001-13.909-.758-22.028-4.189-11.701-4.945-28.344-17.934-33.857-26.423-2.186-3.366-3.703-4.379-5.515-3.684-.655.251-.77.87-.6 3.224.262 3.627 1.594 5.369 9.466 12.387 13.414 11.958 25.044 18.79 37.405 21.974 8.383 2.16 12.554 2.493 20.826 1.664zm-18.195-69.137c1.747-.927 3.88-1.839 4.74-2.028 1.88-.413 3.304-1.849 2.894-2.919-1.255-3.269-11.966-1.711-14.828 2.157-1.188 1.605-.75 2.868 1.302 3.761 2.168.944 2.336.916 5.893-.971zm40.673.96c1.413-.59 1.734-.993 1.734-2.173 0-1.662-.841-2.529-3.985-4.111-2.579-1.298-7.607-1.843-9.653-1.047-2.905 1.131-2.019 3.401 1.771 4.535 1.164.348 2.712 1.056 3.44 1.573 2.81 1.998 4.221 2.255 6.693 1.222z" fill="#ff942a" stroke-width="2.55"/><path d="M327.818 831.432c-19.112-6.725-37.821-19.077-42.698-28.19-2.29-4.279-1.205-6.652 5.696-12.459 23.453-19.735 6.654-59.491-40.534-95.928l-36.108-27.839-14.131-10.868 5.649-6.103c3.776-4.079 6.768-13.586 9.024-28.669 4.74-31.696 11.518-52.266 35.9-108.956 25.673-59.691 35.196-85.336 41.724-112.355l4.936-20.432 8.906 6.673c17.793 13.333 33.78 19.684 49.204 19.547 12.439-.11 21.019-3.173 52.977-18.908 20.974-10.327 38.796-18.776 39.605-18.776s1.47 1.293 1.47 2.874c0 7.651 28.115 78.931 49.853 126.394 13.393 29.241 29.084 67.706 34.87 85.476l10.52 32.31-11.559 12.016c-27.628 28.722-41.965 49.021-47.065 66.635-1.507 5.204-4.661 26.009-7.01 46.232s-6.203 43.501-8.565 51.728c-4.973 17.321-10.002 21.222-45.085 34.973-18.658 7.313-27.589 9.063-50.912 9.98-24.072.946-31.022.148-46.669-5.358z" fill="url(#A)" stroke-width="14.425"/></g></svg>