<?xml version="1.0" encoding="UTF-8"?><svg id="Layer_1" xmlns="http://www.w3.org/2000/svg" xmlns:xlink="http://www.w3.org/1999/xlink" viewBox="0 0 743.89 705.63"><defs><style>.cls-1,.cls-2,.cls-3,.cls-4,.cls-5,.cls-6,.cls-7,.cls-8,.cls-9,.cls-10,.cls-11,.cls-12{fill:none;}.cls-13{fill:url(#_10_dpi_20_);}.cls-14{clip-path:url(#clippath);}.cls-2{stroke-dasharray:0 0 14.41 10.81;}.cls-2,.cls-3,.cls-15,.cls-4,.cls-16,.cls-17,.cls-5,.cls-6,.cls-7,.cls-8,.cls-18,.cls-9,.cls-10,.cls-11,.cls-12{stroke:#e00;}.cls-2,.cls-3,.cls-4,.cls-16,.cls-17,.cls-5,.cls-6,.cls-7,.cls-8,.cls-9,.cls-10,.cls-11,.cls-12{stroke-linecap:round;stroke-linejoin:round;}.cls-2,.cls-15,.cls-16,.cls-17,.cls-5,.cls-8,.cls-9,.cls-10{stroke-width:2px;}.cls-19,.cls-16,.cls-18{fill:#e00;}.cls-20,.cls-15,.cls-17{fill:#fff;}.cls-21{fill:#e80000;}.cls-3{stroke-dasharray:0 0 15.42 11.56;}.cls-3,.cls-6,.cls-7,.cls-11,.cls-12{stroke-width:2.02px;}.cls-15,.cls-18{stroke-miterlimit:10;}.cls-4{stroke-width:1.8px;}.cls-5{stroke-dasharray:0 0 15.87 11.9;}.cls-6{stroke-dasharray:0 0 15.43 11.57;}.cls-22{clip-path:url(#clippath-1);}.cls-9{stroke-dasharray:0 0 13.84 10.38;}.cls-10{stroke-dasharray:0 0 13.84 10.38;}.cls-11{stroke-dasharray:0 0 17.04 12.78;}.cls-12{stroke-dasharray:0 0 16.72 12.54;}</style><pattern id="_10_dpi_20_" x="0" y="0" width="28.8" height="28.8" patternTransform="translate(-14552.83 -1623.54) rotate(-180) scale(.65 -.65)" patternUnits="userSpaceOnUse" viewBox="0 0 28.8 28.8"><g><rect class="cls-1" width="28.8" height="28.8"/><g><path class="cls-21" d="m28.8,30.24c.8,0,1.44-.64,1.44-1.44s-.64-1.44-1.44-1.44-1.44.64-1.44,1.44.64,1.44,1.44,1.44Z"/><path class="cls-21" d="m14.4,30.24c.8,0,1.44-.64,1.44-1.44s-.65-1.44-1.44-1.44-1.44.64-1.44,1.44.64,1.44,1.44,1.44Z"/><path class="cls-21" d="m28.8,15.84c.8,0,1.44-.65,1.44-1.44s-.64-1.44-1.44-1.44-1.44.64-1.44,1.44.64,1.44,1.44,1.44Z"/><path class="cls-21" d="m14.4,15.84c.8,0,1.44-.65,1.44-1.44s-.65-1.44-1.44-1.44-1.44.64-1.44,1.44.64,1.44,1.44,1.44Z"/><path class="cls-21" d="m7.2,23.04c.79,0,1.44-.64,1.44-1.44s-.65-1.44-1.44-1.44-1.44.64-1.44,1.44.64,1.44,1.44,1.44Z"/><path class="cls-21" d="m21.6,23.04c.79,0,1.44-.64,1.44-1.44s-.65-1.44-1.44-1.44-1.44.64-1.44,1.44.64,1.44,1.44,1.44Z"/><path class="cls-21" d="m7.2,8.64c.79,0,1.44-.64,1.44-1.44s-.65-1.44-1.44-1.44-1.44.64-1.44,1.44.64,1.44,1.44,1.44Z"/><path class="cls-21" d="m21.6,8.64c.79,0,1.44-.64,1.44-1.44s-.65-1.44-1.44-1.44-1.44.64-1.44,1.44.64,1.44,1.44,1.44Z"/></g><g><path class="cls-21" d="m0,30.24c.8,0,1.44-.64,1.44-1.44S.79,27.36,0,27.36s-1.44.64-1.44,1.44S-.8,30.24,0,30.24Z"/><path class="cls-21" d="m0,15.84c.8,0,1.44-.65,1.44-1.44S.79,12.96,0,12.96s-1.44.64-1.44,1.44S-.8,15.84,0,15.84Z"/></g><g><path class="cls-21" d="m28.8,1.44c.8,0,1.44-.64,1.44-1.44s-.64-1.44-1.44-1.44S27.36-.79,27.36,0s.64,1.44,1.44,1.44Z"/><path class="cls-21" d="m14.4,1.44C15.19,1.44,15.84.8,15.84,0s-.65-1.44-1.44-1.44S12.96-.79,12.96,0s.64,1.44,1.44,1.44Z"/></g><path class="cls-21" d="m0,1.44C.79,1.44,1.44.8,1.44,0S.79-1.44,0-1.44-1.44-.79-1.44,0-.8,1.44,0,1.44Z"/></g></pattern><clipPath id="clippath"><path class="cls-1" d="m85.55,363.82c-3.7-29.01-4.73-59.91-16.46-86.97-5.02-11.58-11.29-22.37-17.8-33.01C29.09,207.51,3.85,161.26,13.09,117.52h204.74v246.3H85.55Z"/></clipPath><clipPath id="clippath-1"><path class="cls-1" d="m139.12,358.96l4.35.22s-.17-4.4,1.87-7.79l-7.87-.66-.22.86,1.87,7.37Z"/></clipPath></defs><g><polygon class="cls-13" points="189.38 319.59 189.52 319.59 189.52 319.59 189.38 319.59 189.38 319.59"/><polygon class="cls-13" points="26.09 151.23 26.09 151.23 26.23 151.23 26.23 151.23 26.09 151.23"/><path class="cls-13" d="m18.34,164.17c-1.48-1.61-2.39-3.75-2.39-6.11v-7.9c0-5,4.07-9.07,9.07-9.07h7.9c2.26,0,4.32.84,5.91,2.21,1.59-1.37,3.65-2.21,5.91-2.21h15.77c2.26,0,4.32.84,5.91,2.21,1.59-1.37,3.65-2.21,5.91-2.21h15.77c2.26,0,4.32.84,5.91,2.21,1.59-1.37,3.65-2.21,5.91-2.21h15.77c2.26,0,4.32.84,5.91,2.21,1.59-1.37,3.65-2.21,5.91-2.21h15.77c2.26,0,4.32.84,5.91,2.21,1.59-1.37,3.65-2.21,5.91-2.21h15.77c2.26,0,4.32.84,5.91,2.21,1.59-1.37,3.65-2.21,5.91-2.21h7.9c5,0,9.07,4.07,9.07,9.07v7.9c0,2.35-.91,4.49-2.38,6.11,1.48,1.61,2.38,3.75,2.38,6.11v16.28c0,2.35-.91,4.49-2.38,6.11,1.48,1.61,2.38,3.75,2.38,6.11v16.28c0,2.35-.91,4.49-2.38,6.11,1.48,1.61,2.38,3.75,2.38,6.11v16.28c0,2.35-.91,4.49-2.38,6.11,1.48,1.61,2.38,3.75,2.38,6.11v16.28c0,2.35-.91,4.49-2.38,6.11,1.48,1.61,2.38,3.75,2.38,6.11v16.28c0,2.35-.91,4.49-2.38,6.11,1.48,1.61,2.38,3.75,2.38,6.11v7.9c0,5-4.07,9.07-9.07,9.07h-7.9c-2.01,0-3.86-.67-5.37-1.78-1.5,1.11-3.36,1.78-5.37,1.78h-7.98c.11,5.6-.6,11.28-2.15,16.94,2.66,2.89,3.63,6.75,2.39,10.48-.85,2.55-2.48,4.15-3.64,5.07-.13.31-.28.66-.46,1.02-1.58,3.22-4.51,5.74-8.07,7.07-.93,2.6-2.35,4.77-3.39,6.38l-.56.86-3.65,5.73c-4.47,13.2-3.31,22.92-1.26,29.78,5.7,1.31,13.74,4.41,17.21,12.4l.06.14c.82,2,7.52,18.92,4.66,33.23.36,1.03.79,2.33,1.26,3.85l7.14,1.16,10.28,12.3,10.05,5.59-.06,4,21.46-2.78,32.15-86.73c.76-2.05,2.27-3.67,4.16-4.62-.73-1.3-1.15-2.8-1.15-4.4v-16.85c0-2.46.98-4.68,2.57-6.32-1.59-1.64-2.57-3.86-2.57-6.32v-16.85c0-2.46.98-4.68,2.57-6.32-1.59-1.64-2.57-3.86-2.57-6.32v-16.85c0-2.46.98-4.68,2.57-6.32-1.59-1.64-2.57-3.86-2.57-6.32v-16.85c0-2.46.98-4.68,2.57-6.32-1.59-1.64-2.57-3.86-2.57-6.32v-16.85c0-2.46.98-4.68,2.57-6.32-1.59-1.64-2.57-3.86-2.57-6.32v-16.85c0-2.46.98-4.68,2.57-6.32-1.59-1.64-2.57-3.86-2.57-6.32v-8.6c0-5,4.07-9.08,9.08-9.08h8.6c2.44,0,4.66.98,6.3,2.55,1.63-1.58,3.85-2.55,6.3-2.55h16.79c2.44,0,4.66.98,6.3,2.55,1.63-1.58,3.85-2.55,6.3-2.55h16.79c2.44,0,4.66.98,6.3,2.55,1.63-1.58,3.85-2.55,6.3-2.55h8.6c2.41,0,4.6.95,6.23,2.49.33-16.18,8.8-30.4,21.5-38.69h-107.68c-17.07,0-30.95-13.88-30.95-30.95,0-12.67,7.87-23.89,19.19-28.59,0-.15,0-.3,0-.45,0-12.21,4.21-23.58,11.42-33.1-31.66-8.32-62.11-23.51-94.83-27.14-14.27-1.59-28.71-1.64-43-.32-40.66,3.77-86.68,19.52-107.68,57.29-13.74,24.71-13.34,51.07-6.25,76.62.12-2.16.99-4.12,2.36-5.62Z"/><path class="cls-13" d="m391.19,74.35c.62-.03,1.25-.04,1.88-.04,14.55,0,28.14,7.92,35.52,20.23.09,0,.18,0,.27,0,12.82,0,23.98,7.84,28.63,19.21,4.76-.5,9.55-.46,14.28.1,7.05-18.03,20.21-34.21,37.63-46.1,20.28-13.84,45.75-21.46,71.74-21.46,51.85,0,95.81,29.52,110.29,70.01-1.05-17.19-6.04-33.93-16.63-48.98-21.55-30.63-57.01-50.97-92.7-60.48-44.74-11.93-91.83-8.01-134.3,10.07-24.81,10.57-48.79,24.65-73.72,35.49,7.48,6.13,13.37,13.67,17.13,21.96Z"/><polygon class="cls-13" points="578.39 491.75 578.39 491.75 578.39 491.61 578.39 491.61 578.39 491.75"/><polygon class="cls-13" points="578.39 323.39 578.53 323.39 578.53 323.39 578.39 323.39 578.39 323.53 578.39 323.53 578.39 323.39"/><path class="cls-13" d="m673.16,534.27c-2.9,4.17-7.73,6.87-13.08,6.87s-10.18-2.7-13.08-6.87h-55.86c-5,0-9.07-4.07-9.07-9.07s4.07-9.07,9.07-9.07h55.86c2.9-4.17,7.73-6.87,13.08-6.87s10.18,2.7,13.08,6.87h42.08c.72-4.64,1.21-9.39,1.48-14.25h-9.32c-2.26,0-4.32-.84-5.91-2.21-1.59,1.37-3.65,2.21-5.91,2.21h-15.77c-2.26,0-4.32-.84-5.91-2.21-1.59,1.37-3.65,2.21-5.91,2.21h-15.77c-2.26,0-4.32-.84-5.91-2.21-1.59,1.37-3.65,2.21-5.91,2.21h-15.77c-2.26,0-4.32-.84-5.91-2.21-1.59,1.37-3.65,2.21-5.91,2.21h-15.77c-2.26,0-4.32-.84-5.91-2.21-1.59,1.37-3.65,2.21-5.91,2.21h-7.9c-5,0-9.07-4.07-9.07-9.07v-7.9c0-2.35.91-4.49,2.38-6.11-1.48-1.61-2.38-3.75-2.38-6.11v-16.28c0-2.35.91-4.49,2.38-6.11-1.48-1.61-2.38-3.75-2.38-6.11v-16.28c0-2.35.91-4.49,2.38-6.11-1.48-1.61-2.38-3.75-2.38-6.11v-16.28c0-2.35.91-4.49,2.38-6.11-1.48-1.61-2.38-3.75-2.38-6.11v-16.28c0-2.35.91-4.49,2.38-6.11-1.48-1.61-2.38-3.75-2.38-6.11v-16.28c0-2.35.91-4.49,2.38-6.11-1.48-1.61-2.38-3.75-2.38-6.11v-7.9c0-5,4.07-9.07,9.07-9.07h7.9c2.26,0,4.32.84,5.91,2.21,1.59-1.37,3.65-2.21,5.91-2.21h15.77c2.26,0,4.32.84,5.91,2.21,1.59-1.37,3.65-2.21,5.91-2.21h15.77c2.26,0,4.32.84,5.91,2.21,1.59-1.37,3.65-2.21,5.91-2.21h10.54c-8.95-23.68-9.18-46.9-4.59-69.84h-146.04c-.11,2.24-1.05,4.25-2.5,5.78,1.55,1.63,2.51,3.83,2.51,6.25v16.65c0,2.42-.96,4.62-2.51,6.25,1.55,1.63,2.51,3.83,2.51,6.25v16.65c0,2.42-.96,4.62-2.51,6.25,1.55,1.63,2.51,3.83,2.51,6.25v16.65c0,2.42-.96,4.62-2.51,6.24,1.55,1.63,2.51,3.83,2.51,6.25v16.65c0,2.42-.96,4.62-2.51,6.25,1.55,1.63,2.51,3.83,2.51,6.25v16.65c0,2.42-.96,4.62-2.51,6.25,1.55,1.63,2.51,3.83,2.51,6.25v16.65c0,2.42-.96,4.62-2.51,6.25,1.55,1.63,2.51,3.83,2.51,6.25v16.65c0,2.42-.96,4.62-2.51,6.25,1.55,1.63,2.51,3.83,2.51,6.25v16.65c0,2.42-.96,4.62-2.51,6.25,1.55,1.63,2.51,3.83,2.51,6.25v16.65c0,2.42-.96,4.62-2.51,6.25,1.55,1.63,2.51,3.82,2.51,6.25v8.6c0,5-4.07,9.07-9.07,9.07h-8.6c-.36,0-.72-.03-1.07-.07v.75h-236.74c-2.78,0-5.04-2.26-5.04-5.04v-10.21c-2.05.85-4.19,1.22-6.1,1.22h-6.14c-3.93.31-8.47.78-10.29,1.18-1.61.46-6.02,4.56-9.56,7.85l-.57.53c-.27.25-27.24,25.29-34.62,31.13-.51.41-11.33,8.93-19.74,10.88.17.6.34,1.2.51,1.8,3.06,10.85,5.64,19.75,8.11,27.99l.47,1.58c1.28,1.25,2.57,2.48,3.88,3.69,39.96,36.88,93,58.88,144.45,70.64,59.93,13.7,122.56,13.66,182.61.8,77.73-16.65,181.18-59.87,206.54-145.9h-38.01Zm-148.48,42.73h-126.84c-3.24,6.09-9.63,10.15-16.96,10.15s-13.73-4.05-16.96-10.15h-126.84c-5,0-9.07-4.07-9.07-9.07s4.07-9.07,9.07-9.07h126.84c3.24-6.09,9.63-10.15,16.96-10.15s13.73,4.05,16.96,10.15h126.84c5,0,9.07,4.07,9.07,9.07s-4.07,9.07-9.07,9.07Z"/><polygon class="cls-13" points="189.52 151.23 189.39 151.23 189.38 151.23 189.52 151.23 189.52 151.23"/></g><path class="cls-20" d="m319.97,400.85c-.09-.14-.24-.22-.4-.23l-64.17-1.95c-.26.01-.41.12-.48.33l-33.83,91.26-33.51,4.34-5.05-.9c-.02-.1-.03-.19-.06-.29-.26-.98-1.18-1.89-1.92-2.62-.13-.13-.26-.25-.37-.37-.41-.42-.81-.8-1.21-1.17,1.1.29,2.09.46,2.93.46.41,0,.79-.04,1.13-.12,1.69-.4,2.67-1.82,2.77-3.01,0-.07-.01-.12-.01-.19l-7.16-3.98-9.33-11.15-8.76-1.43c-.14.01-.29.02-.44.03-1.47-5.78-2.99-9.71-3.33-10.56,3.74-12.39-3.39-29.91-3.7-30.66-1.98-4.56-7.08-7.31-15.88-8.54-3.25-8.25-6.68-21.33.01-40.33l4.15-6.52c.2-.31.4-.62.61-.94,1.68-2.58,3.58-5.5,2.94-8.56.08-.1.18-.24.32-.43.26.02.51.04.77.04.38,0,.75-.02,1.13-.06,2.63-.27,4.87-1.65,5.83-3.62.16-.33.29-.68.42-1.03.22-.59.42-1.14.79-1.57.25-.28.57-.51.92-.76.6-.43,1.28-.91,1.55-1.72.53-1.58-.88-3.06-2.5-3.81-.6-.28-1.21-.52-1.83-.73,3.59-9.34,5.99-22.52.34-36.83-2.43-6.14-5.63-10.15-9.46-11.89-.08-.05-7.71-4.97-17.28-9.24-12.91-5.76-23.01-7.64-30.01-5.6l-.16.08s-1.87,1.41-6.5,3.6c-1.25.04-11.71.56-16.43,5.55-.28.3-.62.63-1.01,1.02-6.39,6.3-25.8,25.48-36.57,118.78-5.19,1-10.59,2.2-15.93,3.63-.49.01-3.6.15-7,1.39-4.87,1.77-7.98,4.96-8.98,9.23-.15.63-.3,1.26-.45,1.91-2.31,9.6-5.18,21.54,3.68,41.48.06.13.17.21.3.25.12,9.61,1.02,26.74,3.08,39.92,1.21,7.79,7.52,47.25,12.4,58.96,1.88,4.52,7.04,15.19,14.32,16.76.59.13,1.19.19,1.78.19.52,0,1.03-.06,1.55-.16-9.47,31.96-9.58,59.28-9.58,59.56,0,.25.19.46.44.5,9.43,1.2,20.79,1.73,32.95,1.73,46.89,0,105.59-7.85,110.82-15.22.64-.9.48-1.67.24-2.15-.59-1.17-1.06-2.44-1.48-3.56-2.71-7.19-4.95-14.71-7.12-21.97l-.67-2.23c-2.48-8.29-5.07-17.23-8.14-28.11-.9-3.2-1.8-6.41-2.69-9.61-.76-2.73-1.59-5.8-1.99-8.92,1.81,2.05,5.85,6.37,8.1,6.89.2.04.41.07.65.07,3.78,0,12.73-5.45,17.89-9.54,5.93-4.7,26.66-23.77,34.14-30.73l.56-.52c5.63-5.23,9.69-9,13.28-9.8,3.79-.84,14.75-1.69,18-1.69.01,0,.05,0,.1,0v.32h.06c.7,0,4.53-.15,6.12-3.45,1.05-2.18,4.57-5.46,6.71-7.45.75-.7,1.34-1.26,1.68-1.62.16-.18.37-.35.62-.57l.14-.12c1.36-.45,6.91-2.46,6.91-5.62,0-.13-.03-1.25-.82-2.12l16.92-2.5c.18-.03.32-.14.39-.31l35.82-89.02c.06-.15.04-.32-.04-.46Z"/><g class="cls-14"><g><g><line class="cls-8" x1="25.02" y1="320.68" x2="25.02" y2="313.27"/><line class="cls-9" x1="25.02" y1="302.89" x2="25.02" y2="162.76"/><polyline class="cls-8" points="25.02 157.57 25.02 150.16 32.43 150.16"/><line class="cls-5" x1="44.33" y1="150.16" x2="177.23" y2="150.16"/><polyline class="cls-8" points="183.18 150.16 190.59 150.16 190.59 157.57"/><line class="cls-10" x1="190.59" y1="167.95" x2="190.59" y2="308.06"/><polyline class="cls-8" points="190.59 313.25 190.59 320.65 183.18 320.65"/><line class="cls-2" x1="172.37" y1="320.65" x2="51.65" y2="320.65"/><line class="cls-8" x1="46.24" y1="320.65" x2="38.84" y2="320.65"/></g><g><rect class="cls-15" x="38.84" y="164.02" width="137.87" height="47.57"/><rect class="cls-15" x="38.84" y="211.59" width="137.87" height="47.57"/><g><rect class="cls-19" x="53.61" y="184.38" width="75.7" height="8.71"/><circle class="cls-19" cx="157.02" cy="188.74" r="4.36"/></g><g><rect class="cls-19" x="53.61" y="231.02" width="75.7" height="8.71"/><circle class="cls-19" cx="157.02" cy="235.38" r="4.36"/></g><rect class="cls-15" x="38.84" y="259.21" width="137.87" height="47.57"/></g><g><circle class="cls-19" cx="157.02" cy="282.99" r="4.36"/><g><rect class="cls-20" x="45.15" y="278.83" width="25.64" height="8.71" transform="translate(-225.21 341.15) rotate(-90)"/><rect class="cls-20" x="61.27" y="278.83" width="25.64" height="8.71" transform="translate(-209.09 357.28) rotate(-90)"/></g></g></g></g><path class="cls-17" d="m246.21,125.48c0,12.07,9.82,21.88,21.88,21.88h160.76c12.07,0,21.88-9.82,21.88-21.88,0-12.07-9.82-21.88-21.88-21.88-1.86,0-3.73.25-5.57.73-4.7-12.56-16.76-20.96-30.21-20.96-2.64,0-5.27.32-7.83.96-3.12-10.95-10.55-20.86-20.96-27.97-10.74-7.33-24.27-11.37-38.1-11.37-33.51,0-60.77,23.08-60.77,51.44,0,2.43.2,4.88.61,7.28-11.15,1.06-19.79,10.49-19.79,21.76Z"/><path class="cls-17" d="m686.34,158.05c.7-4.21,1.06-8.49,1.06-12.74,0-49.6-47.68-89.95-106.28-89.95-24.18,0-47.85,7.06-66.63,19.88-18.22,12.43-31.2,29.77-36.66,48.91-4.48-1.12-9.09-1.69-13.7-1.69-23.52,0-44.62,14.68-52.83,36.65-3.21-.85-6.49-1.28-9.74-1.28-21.1,0-38.26,17.16-38.26,38.26s17.17,38.26,38.26,38.26h281.13c21.1,0,38.26-17.16,38.26-38.26,0-19.71-15.11-36.19-34.62-38.05Z"/><g><polyline class="cls-8" points="742.89 485.41 742.89 492.82 735.49 492.82"/><line class="cls-5" x1="723.58" y1="492.82" x2="590.68" y2="492.82"/><polyline class="cls-8" points="584.73 492.82 577.32 492.82 577.32 485.41"/><line class="cls-10" x1="577.32" y1="475.03" x2="577.32" y2="334.92"/><polyline class="cls-8" points="577.32 329.73 577.32 322.33 584.73 322.33"/><line class="cls-5" x1="596.63" y1="322.33" x2="729.54" y2="322.33"/><polyline class="cls-8" points="735.49 322.33 742.89 322.33 742.89 329.73"/><line class="cls-10" x1="742.89" y1="340.11" x2="742.89" y2="480.22"/></g><g><rect class="cls-17" x="591.14" y="336.18" width="137.87" height="47.57"/><rect class="cls-17" x="591.14" y="383.75" width="137.87" height="47.57"/><g><rect class="cls-19" x="605.91" y="356.54" width="75.7" height="8.71"/><circle class="cls-19" cx="709.33" cy="360.9" r="4.36"/></g><g><circle class="cls-19" cx="709.33" cy="407.54" r="4.36"/><g><rect class="cls-19" x="597.45" y="403.38" width="25.64" height="8.71" transform="translate(202.54 1018.01) rotate(-90)"/><rect class="cls-19" x="613.57" y="403.38" width="25.64" height="8.71" transform="translate(218.66 1034.13) rotate(-90)"/></g></g><rect class="cls-17" x="591.14" y="431.37" width="137.87" height="47.57"/><g><rect class="cls-19" x="605.91" y="450.8" width="75.7" height="8.71"/><circle class="cls-19" cx="709.33" cy="455.16" r="4.36"/></g></g><g><line class="cls-8" x1="591.14" y1="525.2" x2="729.02" y2="525.2"/><circle class="cls-19" cx="660.08" cy="525.2" r="7.93"/></g><g><g><rect class="cls-15" x="274.61" y="216.81" width="213.33" height="73.61"/><rect class="cls-15" x="274.61" y="290.42" width="213.33" height="73.61"/><rect class="cls-15" x="274.61" y="364.03" width="213.33" height="73.61"/><rect class="cls-15" x="274.61" y="437.63" width="213.33" height="73.61"/><g><rect class="cls-19" x="297.46" y="248.32" width="117.13" height="13.48"/><circle class="cls-19" cx="457.47" cy="255.06" r="6.74"/></g><circle class="cls-19" cx="457.47" cy="400.83" r="6.74"/><circle class="cls-19" cx="457.47" cy="474.44" r="6.74"/><circle class="cls-19" cx="457.47" cy="327.4" r="6.74"/><g><rect class="cls-19" x="284.37" y="320.48" width="39.67" height="13.48" transform="translate(-23.02 631.43) rotate(-90)"/><rect class="cls-19" x="309.32" y="320.48" width="39.67" height="13.48" transform="translate(1.93 656.37) rotate(-90)"/></g></g><g><line class="cls-7" x1="503.06" y1="234.36" x2="503.06" y2="242.42"/><line class="cls-12" x1="503.06" y1="254.96" x2="503.06" y2="512.02"/><polyline class="cls-7" points="503.06 518.29 503.06 526.35 495 526.35"/><line class="cls-3" x1="483.44" y1="526.35" x2="273.34" y2="526.35"/><polyline class="cls-7" points="267.56 526.35 259.5 526.35 259.5 518.29"/><line class="cls-6" x1="259.5" y1="506.72" x2="259.5" y2="215.55"/><polyline class="cls-7" points="259.5 209.76 259.5 201.7 267.56 201.7"/><line class="cls-11" x1="280.34" y1="201.7" x2="333.59" y2="201.7"/><line class="cls-7" x1="339.98" y1="201.7" x2="348.04" y2="201.7"/></g><line class="cls-8" x1="237.08" y1="567.93" x2="524.68" y2="567.93"/><circle class="cls-19" cx="380.88" cy="567.93" r="11.21"/><rect class="cls-19" x="297.46" y="394.11" width="117.13" height="13.48"/><rect class="cls-19" x="297.46" y="468.03" width="117.13" height="13.48"/></g><g><path class="cls-19" d="m113.44,396.77c3.75,1.34,7.93,2.55,10.29,2.33,4.48-.43,6.52-3.64,7.09-4.69s.86-4.24,1.17-6.07c.32-1.83,4.76-8.77,4.76-8.77-6.23,17.64-4.1,30.51.08,41,0,0-10.55-1.05-18.42-3.63l-7.25-3.17-2.46-1.33s-.21-6.5,4.69-15.51"/><path class="cls-19" d="m152.18,313.42c-2.59-6.55-5.84-10.09-9.27-11.65,0,0-30.26-19.61-46.88-14.78,0,0-1.86,1.42-6.68,3.7,0,0-11.35.28-16.19,5.4-4.83,5.12-26.08,20.57-37.49,119.87l24.61-3.66c-.46-1.48,0,0,0,0,6.66-.72,10.86-.97,10.86-.97,2.97-6.78,5.4-13.79,7.24-20.96.83-3.21,1.54-6.46,1.83-9.75.59-6.62-.85-19.48-1.96-26.05-4-2.67-8.5-8.69-7.94-16.02.15-1.97,1.19-3.93,2.79-5.09,1.62-1.17,3.89-1.17,5.73-.38s3.31,2.26,4.51,3.87c.35.47.71.98,1.24,1.23.46.22.98.23,1.49.2,1.56-.08,3.58-.72,4.99-1.38l2.5-1.64c.95-.87,2.03-2.21,2.66-3.34,1.7-3.07,2.1-6.86,4.38-9.53,1.55-1.82,3.8-2.88,6.02-3.75,7.47-2.92,15.59-4.18,23.6-3.67,1.65.11,3.32.3,4.93.64l.1-.19c3.23.66,6.48,1.97,8.19,4.51,0,0,.01.02.02.03.85.91,1.55,1.93,2.03,3.08l-.16-.06c1.58,3.5.77,7.55.8,11.39.02,2.9.55,5.8,1.54,8.53.43,1.18.96,2.41.7,3.64-.24,1.15-1.12,2.04-1.85,2.96-.53.66-.99,1.38-1.38,2.12-.1,1.92-1.54,4.33-1.64,5.9-.26,3.99.84,6,.84,6,0,0,18.6-22.91,7.81-50.2Z"/><path class="cls-8" d="m91.08,336.99c-1.41.66-3.43,1.29-4.99,1.38-.51.03-1.03.02-1.49-.2-.53-.26-.89-.76-1.24-1.23-1.2-1.6-2.67-3.08-4.51-3.87s-4.11-.79-5.73.38c-1.6,1.16-2.64,3.12-2.79,5.09-.85,11.05,9.8,19.11,12.91,17.25"/><path class="cls-17" d="m145.51,323.13c-1.17-2.8-3.65-4.92-6.42-6.17-2.77-1.25-5.83-1.71-8.87-1.9-8.01-.51-16.12.75-23.6,3.67-2.23.87-4.47,1.94-6.02,3.75-2.28,2.67-2.68,6.46-4.38,9.53-.63,1.13-1.71,2.47-2.66,3.34"/><path class="cls-8" d="m78.25,354.54c1.12,6.56,2.55,19.44,1.97,26.07-.29,3.3-1,6.55-1.83,9.75-1.85,7.17-4.27,14.18-7.24,20.96,0,0-26.41,1.52-51.78,8.34,0,0-13.22.21-15.56,10.23-2.35,10.02-6.18,21.96,3.2,43.07"/><path class="cls-8" d="m85.7,372.54c.47,2.61,1.32,5.15,2.55,7.5,1.82,3.49,4.46,6.58,7.73,8.77,1.56,1.04,3.24,1.87,4.93,2.67,4.1,1.95,8.26,3.76,12.48,5.43,3.04,1.2,6.2,2.35,9.46,2.25,3.26-.11,6.69-1.75,7.96-4.76.81-1.9.68-4.07,1.17-6.07.51-2.08,1.68-3.93,2.83-5.74,2.04-3.2,4.08-6.41,6.11-9.61,1.83-2.87,4.27-6.06,3.43-9.36"/><path class="cls-17" d="m144.32,363.49c-1.7-4.6-.83-10.06,2.23-13.9.73-.92,1.61-1.81,1.85-2.96.26-1.23-.27-2.46-.7-3.64-1-2.73-1.52-5.62-1.54-8.53-.03-3.84.78-7.89-.8-11.39"/><path class="cls-16" d="m116.18,348.49c-1.41-.72-2.85-1.39-4.29-2.07-5.69-2.68-11.37-5.36-17.06-8.04-3.75-1.77-8.26-3.24-12.33-2.49l-1.44-1.43c2.51-1.24,5.06-.99,7.4-.58,10.09,1.74,19.68,6.79,28.96,11.1"/><path class="cls-8" d="m117.49,345.12c-.95,2.96-1.72,5.72-2.67,8.68-.18.56-.36,1.15-.21,1.72.14.51.54.91.94,1.26,4.14,3.58,10.18,4.1,15.55,3.09.65-.12,1.31-.27,1.89-.59,1.41-.78,2.09-2.39,2.67-3.89.65-1.69,1.31-3.38,1.96-5.07.1-.27.21-.57.12-.84-.11-.32-.45-.49-.76-.62-6.12-2.65-12.83-3.94-19.5-3.74"/><path class="cls-8" d="m137.64,352.67c1.03,4.36,2.06,8.72,3.09,13.07.27,1.13.53,2.35.07,3.42-.43,1.01-1.47,1.69-2.55,1.86s-2.21-.1-3.19-.58"/><path class="cls-8" d="m127.68,366.13c.04,1,.17,2.04.66,2.91s1.41,1.57,2.41,1.54"/><path class="cls-8" d="m140.5,361.99c2.16.52,4.37,1.04,6.58.81s4.46-1.35,5.43-3.34c.44-.9.62-1.95,1.28-2.71.74-.84,2.02-1.25,2.37-2.31.45-1.36-.94-2.6-2.24-3.2-4.82-2.25-10.41-1.87-15.71-1.33"/><path class="cls-16" d="m147.7,343.96c-2.07.39-4.12.88-6.15,1.48,0,0,.11,1.32.62,1.45.14.04.28,0,.42-.02,1.64-.36,3.29-.72,4.93-1.08,0,0,.86-.9.73-1.14s-.55-.69-.55-.69Z"/><path class="cls-16" d="m135.93,344.93c.21-.57.4-1.28,0-1.74-.16-.18-.39-.28-.61-.38-5.71-2.4-12.17-2.97-18.21-1.59.44.59,1.31.57,2.05.53,5.72-.31,11.31,1.59,16.73,3.45l.06-.28Z"/><g><path class="cls-4" d="m115.11,373.87c1.92,3.36,4.66,6.24,7.92,8.31,1.17.75,2.45,1.4,3.84,1.53,1.38.13,4.67-.06,4.88-3.09"/><path class="cls-4" d="m115.02,374.01c1.77,1.78,4.21,2.89,6.71,3.06,1.96.13,3.97-.28,5.85.26.68.19,1.34.51,2.04.53.62.02,1.22-.19,1.84-.27s1.32,0,1.73.46c.45.48.36,1.08.02,1.59-.7,1.06-1.77,1.05-2.91,1.07-.66,0-1.31,0-1.97-.05s-1.32-.11-1.98-.19c-.6-.07-1.23-.17-1.82-.35-.64-.19-1.23-.49-1.84-.76-.77-.34-1.53-.68-2.28-1.06-.61-.31-1.24-.62-1.79-1.03"/></g><g><path class="cls-18" d="m127.52,351.68c-7.2,2.17-11.16-1.7-11.34-1.88-.13-.14-.13-.36,0-.49.14-.14.36-.14.49,0,.04.04,4.12,4,11.36,1.47.18-.06.38.03.44.21s-.03.38-.21.44c-.25.09-.5.17-.75.24Z"/><path class="cls-18" d="m119.71,351.54c-.13.4-.14.84,0,1.27.34,1.13,1.54,1.78,2.67,1.43.98-.29,1.59-1.22,1.52-2.2-1.68.13-3.08-.13-4.18-.5Z"/></g><g class="cls-22"><g><path class="cls-18" d="m148.28,354.32c-7.2,2.17-11.16-1.7-11.34-1.88-.13-.14-.13-.36,0-.49.14-.14.36-.14.49,0,.04.04,4.12,4,11.36,1.47.18-.06.38.03.44.21s-.03.38-.21.44c-.25.09-.5.17-.75.24Z"/><path class="cls-18" d="m140.47,354.19c-.13.4-.14.84,0,1.27.34,1.13,1.54,1.78,2.67,1.43.98-.29,1.59-1.22,1.52-2.2-1.68.13-3.08-.13-4.18-.5Z"/></g></g><path class="cls-8" d="m113.39,396.91s-2.98,4.63-4.69,15.51c0,0,11.36,6.82,23.59,7.68,12.23.85,18.2,3.84,20.33,8.74,0,0,7.48,18.12,3.63,30.49,0,0,17.26,41.15-4.49,68.23.45,7.01.97,14.04.7,21.07-.13,3.29-.68,6.53-.34,9.82.34,3.3,1.22,6.52,2.11,9.71.89,3.21,1.79,6.41,2.69,9.61,2.65,9.39,5.35,18.77,8.14,28.12,2.43,8.12,4.81,16.3,7.79,24.24.46,1.22.92,2.44,1.51,3.61,4.69,9.38-94.88,21.11-143.49,14.92,0,0,0-27.62,9.8-60.24"/><path class="cls-8" d="m60.29,412.29s13.06,9.94,33.29,11.43c20.24,1.49,24.95-1.45,24.83-6.8"/><path class="cls-8" d="m162.69,490.14s7.62,24.83,10.18,35.28c0,0,25.05-9.95,34.85-20.4,0,0,.64-4.48,2.35-6.4"/><g><polyline class="cls-17" points="218.07 499.83 255.38 399.17 319.56 401.12 283.74 490.14 218.07 499.83"/><polygon class="cls-16" points="128.95 506.66 218.07 499.83 219.42 495.28 128.95 502.83 128.95 506.66"/></g><path class="cls-8" d="m35.81,649.2s-5.57,25.17-5.79,55.43"/><path class="cls-8" d="m111.9,689.37s-.76,6.52-2.17,15.26"/><path class="cls-8" d="m166.87,639.17s9.71,33.58,17.38,65.46"/><path class="cls-16" d="m126.04,314.95s-6.68,15.62-29.8,17.06c0,0-1.64-5.78,4.38-9.53,6.02-3.75,15.87-8.36,25.42-7.53Z"/><g><polygon class="cls-20" points="153.75 470.93 176.64 468.92 190.28 486.12 163.42 484.77 152.76 489.21 153.75 470.93"/><path class="cls-8" d="m48.57,469.34c-9.59-30.06-27.08-45.2-27.08-45.2,0,0-11.09,1.28-12.58,16.2-1.49,14.92-1.07,21.11-1.49,26.86s.43,29.64,2.98,46.05c2.56,16.42,8.1,48.61,12.37,58.84s12.79,22.6,22.6,13.43c9.81-9.17,19.19-12.37,24.31-15.14s24.09-12.37,50.74-47.76c0,0,7.66-7.68,13.96-9.81,6.3-2.13,16.1-8.53,19.52-18.12.66-1.87,1.39-3.37,2.13-4.58,0,0,6.61-4.81,7.4-5.37.87-.63,3.9,1.84,4.53,2.28,1.97,1.4,3.55,3.24,5.19,4.99,1.6,1.71,3.08,3.26,5.49,3.74,1.52.3,3.91-.19,3.36-2.25-.27-1.02-1.46-2.04-2.17-2.76-1.01-1.04-1.89-1.82-3.03-2.72"/><path class="cls-8" d="m48.57,469.34s.48,29.42,1.09,42c.61,12.58,1.89,23.45,1.68,27.08"/><path class="cls-8" d="m43.03,541.41s6.4-2.56,15.78-4.9,33.26-18.76,39.44-23.03c6.18-4.26,17.3-11.3,20.16-13.43,2.86-2.13,17.57-21.96,19.49-25.16,0,0,1.21-3.84,7.18-2.2,0,0,10.06,2.57,14.94,2.6"/><path class="cls-8" d="m145.51,493s3.98-3.47,4.41-5.67c0,0,6.25-3.13,7.39-3.98s4.62-2.49,5.4-2.98,9.67-3.77,8.46-8.1c0,0-.21-1.99-3.84-.43-3.62,1.56-7.82,3.84-9.67,4.48s-6.47,2.06-8.1,3.34"/><path class="cls-8" d="m158.09,483.49s7.6,0,12.79,2.2c5.19,2.2,9.65,3.98,12.04,3.41s3.24-3.48,1.39-4.26-7.25-3.18-9.31-3.83c-2.06-.65-7.74-2.99-7.74-2.99"/><path class="cls-8" d="m178.63,482.41s-2.35-4.25-4.27-5.82c-1.92-1.56-3.64-1.71-3.64-1.71"/><path class="cls-8" d="m141.18,477.52s14.5-.78,16.49-1.21"/><path class="cls-8" d="m141.66,472.32s1.65-1.44,6.77-1.39c5.12.05,13.15-.73,14.28-.73s4.26.71,4.62,1.63"/></g><path class="cls-20" d="m245.45,513.59c.17,0,4.17.08,5.73-3.17,1.09-2.26,4.65-5.58,6.78-7.56.76-.71,1.37-1.27,1.7-1.63.18-.2.41-.39.67-.61.07-.06.14-.12.22-.19.72-.23,6.66-2.22,6.66-5.18,0-.05,0-1.11-.76-1.87-.39-.39-.91-.6-1.54-.67.4-1.39.78-3.02,1.12-4.97.02-.11,2.03-11.45,2.35-14.31.01-.11-.03-.21-.12-.28-.05-.04-1.28-1.01-2.96-.12.04-.71.04-1.33-.02-1.8-.02-.12-.09-.21-.2-.26-.09-.03-2.16-.84-4.06.07-1.15.55-1.97,1.6-2.44,3.11l-1.39,4.05c-.04.11,0,.23.07.31-1.12-.15-2.5.11-4.02,1.36-.04.03-.06.06-.08.11-.02.05-2.26,4.59-3.63,8.15l-1.49,3.49c-.03.06-.03.12-.02.18-.81.11-1.7.4-2.68.99l-4.53,4.11-5.97,1.99"/><path class="cls-8" d="m152.18,557.71s5.98,7.15,8.75,7.79,11.94-4.48,18.12-9.38c6.18-4.9,28.14-25.16,34.11-30.7,5.97-5.54,10.23-9.59,14.07-10.45,3.84-.85,14.92-1.71,18.12-1.71,0,0,3.94.11,5.44-2.98,1.49-3.09,7.25-7.89,8.53-9.27,1.28-1.39,4.37-2.35,6.29-13.33,0,0,2.03-11.41,2.35-14.28,0,0-1.17-.96-2.77,0"/><path class="cls-8" d="m257.41,478.3l1.39-4.05c1.49-4.8,6.08-2.98,6.08-2.98.53,4.16-3.62,19.83-3.62,19.83"/><path class="cls-8" d="m248.24,491.73l1.49-3.49c1.39-3.59,3.62-8.13,3.62-8.13,2.39-1.97,4.4-1.34,5.5-.69.56.33.78,1.03.55,1.63-1.5,3.86-6.9,16.64-6.9,16.64"/><path class="cls-8" d="m232.89,499.83l8-2.67,4.58-4.16c4.26-2.56,6.93.64,6.93.64-.21,1.28-10.77,9.7-10.77,9.7"/><path class="cls-8" d="m260.29,500.14s6.5-2.01,6.5-4.89c0,0,0-2.27-2.39-2.25"/><polyline class="cls-17" points="128.95 502.83 179.05 496.21 221.45 490.71 219.41 496.21"/></g></svg>