<?xml version="1.0" encoding="UTF-8"?><svg xmlns="http://www.w3.org/2000/svg" width="32" height="32" viewBox="0 0 32 32"><defs><style>.uuid-168b9bbc-9419-4917-bcd3-2114b55fe53b{fill:none;}.uuid-335725cf-e4a6-4442-946c-2dc8e8c5dc01{fill:#151515;}</style></defs><g id="uuid-75f76c23-c1b6-4d16-98c6-ad548b061af4"><rect class="uuid-168b9bbc-9419-4917-bcd3-2114b55fe53b" width="32" height="32"/></g><g id="uuid-08df3350-7f5a-4f9c-8ddc-ec9ca74ef47e"><path class="uuid-335725cf-e4a6-4442-946c-2dc8e8c5dc01" d="M26.03711,16.96191c-5.9043-.46826-10.53027-5.09424-10.99902-10.99121-.03711-.52344-.51367-.96973-1.03809-.96973-.52148,0-.99707.44189-1.03809.96191-.46875,5.90479-5.09473,10.53076-10.99121,10.99854-.52344.0376-.96973.51416-.96973,1.03857,0,.52148.44238.99707.96191,1.03809,5.9043.46875,10.53027,5.09473,10.99902,10.99121.03711.52344.51367.96973,1.03809.96973.52148,0,.99707-.44238,1.03809-.96191.46875-5.9043,5.09473-10.53027,10.99902-10.99902.51953-.04199.96191-.51562.96191-1.03809,0-.52148-.44238-.99707-.96191-1.03809Z"/><path class="uuid-335725cf-e4a6-4442-946c-2dc8e8c5dc01" d="M30.06836,6.14746c-1.59668-.35693-2.85938-1.61914-3.21582-3.21387-.08887-.40332-.43945-.68555-.85254-.68555s-.76367.28223-.85156.68311c-.35742,1.59717-1.62012,2.85938-3.21973,3.2168-.40039.09131-.68066.44141-.68066.85205s.28027.76074.68359.85254c1.59668.35693,2.85938,1.61914,3.21582,3.21387.08887.40332.43945.68555.85254.68555s.76367-.28223.85156-.68311c.35742-1.59717,1.62012-2.85938,3.2168-3.21631.00098,0,.00195-.00049.00293-.00049.40039-.09131.68066-.44141.68066-.85205s-.28027-.76074-.68359-.85254Z"/></g></svg>